<svg width="44" height="44" viewBox="0 0 44 44" fill="none" xmlns="http://www.w3.org/2000/svg">
  <defs>
    <linearGradient id="cc-emblem-grad" x1="0%" y1="0%" x2="100%" y2="100%">
      <stop offset="0%" stop-color="#3F5AF3" />
      <stop offset="65%" stop-color="#3F5AF3" />
      <stop offset="100%" stop-color="#687df8" />
    </linearGradient>
    <linearGradient id="cc-emblem-accent" x1="0%" y1="100%" x2="100%" y2="0%">
      <stop offset="0%" stop-color="#3F5AF3" stop-opacity="0.4" />
      <stop offset="100%" stop-color="#ffffff" stop-opacity="0.9" />
    </linearGradient>
    <filter id="cc-glow" x="-20%" y="-20%" width="140%" height="140%">
      <feGaussianBlur stdDeviation="1.5" result="blur" />
      <feComposite in="SourceGraphic" in2="blur" operator="over" />
    </filter>
  </defs>
  <path d="M22 2.5 L39.5 11.5 V32.5 L22 41.5 L4.5 32.5 V11.5 Z" stroke="#3F5AF3" stroke-width="1.5" stroke-opacity="0.35" fill="none" />
  <path d="M34 14.5 L22 7.5 L10 14.5 V29.5 L22 36.5 L34 29.5 L29 26.5 L22 31 L15 26.5 V17.5 L22 13 L29 17.5 Z" fill="url(#cc-emblem-grad)" />
  <path d="M22 17 L28 22 L22 27 L16 22 Z" fill="url(#cc-emblem-accent)" filter="url(#cc-glow)" />
  <circle cx="22" cy="22" r="2" fill="#ffffff" />
  <circle cx="22" cy="7.5" r="1.5" fill="#3F5AF3" />
  <circle cx="34" cy="14.5" r="1.5" fill="#3F5AF3" />
  <circle cx="34" cy="29.5" r="1.5" fill="#3F5AF3" />
</svg>
